<svg width="0" height="0"><symbol xmlns="http://www.w3.org/2000/svg" id="discord-icon" viewBox="0 0 1024 1024"><circle cx="512" cy="512" r="512" style="fill:#5865f2"/><path d="M689.43 349a422.2 422.2 0 0 0-104.22-32.32 1.58 1.58 0 0 0-1.68.79 294 294 0 0 0-13 26.66 389.8 389.8 0 0 0-117.05 0 270 270 0 0 0-13.18-26.66 1.64 1.64 0 0 0-1.68-.79A421 421 0 0 0 334.44 349a1.5 1.5 0 0 0-.69.59c-66.37 99.17-84.55 195.9-75.63 291.41a1.76 1.76 0 0 0 .67 1.2 424.6 424.6 0 0 0 127.85 64.63 1.66 1.66 0 0 0 1.8-.59 303.5 303.5 0 0 0 26.15-42.54 1.62 1.62 0 0 0-.89-2.25 279.6 279.6 0 0 1-39.94-19 1.64 1.64 0 0 1-.16-2.72c2.68-2 5.37-4.1 7.93-6.22a1.58 1.58 0 0 1 1.65-.22c83.79 38.26 174.51 38.26 257.31 0a1.58 1.58 0 0 1 1.68.2c2.56 2.11 5.25 4.23 8 6.24a1.64 1.64 0 0 1-.14 2.72 262.4 262.4 0 0 1-40 19 1.63 1.63 0 0 0-.87 2.28 341 341 0 0 0 26.13 42.52 1.62 1.62 0 0 0 1.8.61 423.2 423.2 0 0 0 128-64.63 1.64 1.64 0 0 0 .67-1.18c10.68-110.44-17.88-206.38-75.7-291.42a1.3 1.3 0 0 0-.63-.63M427.09 582.85c-25.23 0-46-23.16-46-51.6s20.38-51.6 46-51.6c25.83 0 46.42 23.36 46 51.6.02 28.44-20.37 51.6-46 51.6m170.13 0c-25.23 0-46-23.16-46-51.6s20.38-51.6 46-51.6c25.83 0 46.42 23.36 46 51.6.01 28.44-20.17 51.6-46 51.6" style="fill:#fff"/></symbol><symbol xmlns="http://www.w3.org/2000/svg" id="telegram-icon" viewBox="0 0 512 512"><rect width="512" height="512" fill="#37aee2" rx="15%"/><path fill="#c8daea" d="M199 404c-11 0-10-4-13-14l-32-105 245-144"/><path fill="#a9c9dd" d="M199 404c7 0 11-4 16-8l45-43-56-34"/><path fill="#f6fbfe" d="m204 319 135 99c14 9 26 4 30-14l55-258c5-22-9-32-24-25L79 245c-21 8-21 21-4 26l83 26 190-121c9-5 17-3 11 4"/></symbol></svg>