<svg width="0" height="0"><symbol xmlns="http://www.w3.org/2000/svg" id="arrow-back-up" fill="none" stroke="currentColor" stroke-linecap="round" stroke-linejoin="round" stroke-width="2" viewBox="0 0 24 24"><path stroke="none" d="M0 0h24v24H0z"/><path d="m9 14-4-4 4-4"/><path d="M5 10h11a4 4 0 1 1 0 8h-1"/></symbol><symbol xmlns="http://www.w3.org/2000/svg" id="arrow-down" fill="none" stroke="currentColor" stroke-linecap="round" stroke-linejoin="round" stroke-width="2" viewBox="0 0 24 24"><path stroke="none" d="M0 0h24v24H0z"/><path d="M12 5v14m6-6-6 6m-6-6 6 6"/></symbol><symbol xmlns="http://www.w3.org/2000/svg" id="arrow-forward-up" fill="none" stroke="currentColor" stroke-linecap="round" stroke-linejoin="round" stroke-width="2" viewBox="0 0 24 24"><path stroke="none" d="M0 0h24v24H0z"/><path d="m15 14 4-4-4-4"/><path d="M19 10H8a4 4 0 1 0 0 8h1"/></symbol><symbol xmlns="http://www.w3.org/2000/svg" id="arrow-left" fill="none" stroke="currentColor" stroke-linecap="round" stroke-linejoin="round" stroke-width="2" viewBox="0 0 24 24"><path stroke="none" d="M0 0h24v24H0z"/><path d="M5 12h14M5 12l6 6m-6-6 6-6"/></symbol><symbol xmlns="http://www.w3.org/2000/svg" id="arrow-right" fill="none" stroke="currentColor" stroke-linecap="round" stroke-linejoin="round" stroke-width="2" viewBox="0 0 24 24"><path stroke="none" d="M0 0h24v24H0z"/><path d="M5 12h14m-6 6 6-6m-6-6 6 6"/></symbol><symbol xmlns="http://www.w3.org/2000/svg" id="arrow-up" fill="none" stroke="currentColor" stroke-linecap="round" stroke-linejoin="round" stroke-width="2" viewBox="0 0 24 24"><path stroke="none" d="M0 0h24v24H0z"/><path d="M12 5v14m6-8-6-6m-6 6 6-6"/></symbol><symbol xmlns="http://www.w3.org/2000/svg" id="arrows-diagonal" fill="none" stroke="currentColor" stroke-linecap="round" stroke-linejoin="round" stroke-width="2" viewBox="0 0 24 24"><path stroke="none" d="M0 0h24v24H0z"/><path d="M16 4h4v4m-6 2 6-6M8 20H4v-4m0 4 6-6"/></symbol><symbol xmlns="http://www.w3.org/2000/svg" id="aspect-ratio" fill="none" stroke="currentColor" stroke-linecap="round" stroke-linejoin="round" stroke-width="2" viewBox="0 0 24 24"><path stroke="none" d="M0 0h24v24H0z"/><path d="M3 7a2 2 0 0 1 2-2h14a2 2 0 0 1 2 2v10a2 2 0 0 1-2 2H5a2 2 0 0 1-2-2z"/><path d="M7 12V9h3m7 3v3h-3"/></symbol><symbol xmlns="http://www.w3.org/2000/svg" id="ban" fill="none" stroke="currentColor" stroke-linecap="round" stroke-linejoin="round" stroke-width="2" viewBox="0 0 24 24"><path stroke="none" d="M0 0h24v24H0z"/><path d="M3 12a9 9 0 1 0 18 0 9 9 0 1 0-18 0m2.7-6.3 12.6 12.6"/></symbol><symbol xmlns="http://www.w3.org/2000/svg" id="basket" fill="none" stroke="currentColor" stroke-linecap="round" stroke-linejoin="round" stroke-width="2" viewBox="0 0 24 24"><path stroke="none" d="M0 0h24v24H0z"/><path d="M10 14a2 2 0 1 0 4 0 2 2 0 0 0-4 0"/><path d="M5.001 8H19a2 2 0 0 1 1.977 2.304l-1.255 7.152A3 3 0 0 1 16.756 20H7.244a3 3 0 0 1-2.965-2.544l-1.255-7.152A2 2 0 0 1 5.001 8M17 10l-2-6m-8 6 2-6"/></symbol><symbol xmlns="http://www.w3.org/2000/svg" id="book" fill="none" stroke="currentColor" stroke-linecap="round" stroke-linejoin="round" stroke-width="2" viewBox="0 0 24 24"><path stroke="none" d="M0 0h24v24H0z"/><path d="M3 19a9 9 0 0 1 9 0 9 9 0 0 1 9 0M3 6a9 9 0 0 1 9 0 9 9 0 0 1 9 0M3 6v13m9-13v13m9-13v13"/></symbol><symbol xmlns="http://www.w3.org/2000/svg" id="brand-discord" fill="none" stroke="currentColor" stroke-linecap="round" stroke-linejoin="round" stroke-width="2" viewBox="0 0 24 24"><path stroke="none" d="M0 0h24v24H0z"/><path d="M8 12a1 1 0 1 0 2 0 1 1 0 0 0-2 0m6 0a1 1 0 1 0 2 0 1 1 0 0 0-2 0"/><path d="M15.5 17c0 1 1.5 3 2 3 1.5 0 2.833-1.667 3.5-3 .667-1.667.5-5.833-1.5-11.5-1.457-1.015-3-1.34-4.5-1.5l-.972 1.923a11.9 11.9 0 0 0-4.053 0L9 4c-1.5.16-3.043.485-4.5 1.5-2 5.667-2.167 9.833-1.5 11.5.667 1.333 2 3 3.5 3 .5 0 2-2 2-3"/><path d="M7 16.5c3.5 1 6.5 1 10 0"/></symbol><symbol xmlns="http://www.w3.org/2000/svg" id="brand-telegram" fill="none" stroke="currentColor" stroke-linecap="round" stroke-linejoin="round" stroke-width="2" viewBox="0 0 24 24"><path stroke="none" d="M0 0h24v24H0z"/><path d="m15 10-4 4 6 6 4-16-18 7 4 2 2 6 3-4"/></symbol><symbol xmlns="http://www.w3.org/2000/svg" id="building-store" fill="none" stroke="currentColor" stroke-linecap="round" stroke-linejoin="round" stroke-width="2" viewBox="0 0 24 24"><path stroke="none" d="M0 0h24v24H0z"/><path d="M3 21h18M3 7v1a3 3 0 0 0 6 0V7m0 1a3 3 0 0 0 6 0V7m0 1a3 3 0 0 0 6 0V7H3l2-4h14l2 4M5 21V10.85M19 21V10.85M9 21v-4a2 2 0 0 1 2-2h2a2 2 0 0 1 2 2v4"/></symbol><symbol xmlns="http://www.w3.org/2000/svg" id="butterfly" fill="none" stroke="currentColor" stroke-linecap="round" stroke-linejoin="round" stroke-width="2" viewBox="0 0 24 24"><path stroke="none" d="M0 0h24v24H0z"/><path d="M12 18.176a3 3 0 1 1-4.953-2.449l-.025.023A4.502 4.502 0 0 1 8.505 7c1.414 0 2.675.652 3.5 1.671a4.5 4.5 0 1 1 4.983 7.079A3 3 0 1 1 12.005 18zM12 19V9M9 3l3 2 3-2"/></symbol><symbol xmlns="http://www.w3.org/2000/svg" id="category" fill="none" stroke="currentColor" stroke-linecap="round" stroke-linejoin="round" stroke-width="2" viewBox="0 0 24 24"><path stroke="none" d="M0 0h24v24H0z"/><path d="M4 4h6v6H4zm10 0h6v6h-6zM4 14h6v6H4zm10 3a3 3 0 1 0 6 0 3 3 0 1 0-6 0"/></symbol><symbol xmlns="http://www.w3.org/2000/svg" id="check" fill="none" stroke="currentColor" stroke-linecap="round" stroke-linejoin="round" stroke-width="2" viewBox="0 0 24 24"><path stroke="none" d="M0 0h24v24H0z"/><path d="m5 12 5 5L20 7"/></symbol><symbol xmlns="http://www.w3.org/2000/svg" id="checks" fill="none" stroke="currentColor" stroke-linecap="round" stroke-linejoin="round" stroke-width="2" viewBox="0 0 24 24"><path stroke="none" d="M0 0h24v24H0z"/><path d="m7 12 5 5L22 7M2 12l5 5m5-5 5-5"/></symbol><symbol xmlns="http://www.w3.org/2000/svg" id="chevron-right" fill="none" stroke="currentColor" stroke-linecap="round" stroke-linejoin="round" stroke-width="2" viewBox="0 0 24 24"><path stroke="none" d="M0 0h24v24H0z"/><path d="m9 6 6 6-6 6"/></symbol><symbol xmlns="http://www.w3.org/2000/svg" id="circle" fill="currentColor" viewBox="0 0 24 24"><path fill="none" d="M0 0h24v24H0z"/><path d="M7 3.34a10 10 0 1 1-4.995 8.984L2 12l.005-.324A10 10 0 0 1 7 3.34"/></symbol><symbol xmlns="http://www.w3.org/2000/svg" id="color-picker" fill="none" stroke="currentColor" stroke-linecap="round" stroke-linejoin="round" stroke-width="2" viewBox="0 0 24 24"><path stroke="none" d="M0 0h24v24H0z"/><path d="m11 7 6 6M4 16 15.7 4.3a1 1 0 0 1 1.4 0l2.6 2.6a1 1 0 0 1 0 1.4L8 20H4z"/></symbol><symbol xmlns="http://www.w3.org/2000/svg" id="copy" fill="none" stroke="currentColor" stroke-linecap="round" stroke-linejoin="round" stroke-width="2" viewBox="0 0 24 24"><path stroke="none" d="M0 0h24v24H0z"/><path d="M7 9.667A2.667 2.667 0 0 1 9.667 7h8.666A2.667 2.667 0 0 1 21 9.667v8.666A2.667 2.667 0 0 1 18.333 21H9.667A2.667 2.667 0 0 1 7 18.333z"/><path d="M4.012 16.737A2 2 0 0 1 3 15V5c0-1.1.9-2 2-2h10c.75 0 1.158.385 1.5 1"/></symbol><symbol xmlns="http://www.w3.org/2000/svg" id="credit-card-pay" fill="none" stroke="currentColor" stroke-linecap="round" stroke-linejoin="round" stroke-width="2" viewBox="0 0 24 24"><path stroke="none" d="M0 0h24v24H0z"/><path d="M12 19H6a3 3 0 0 1-3-3V8a3 3 0 0 1 3-3h12a3 3 0 0 1 3 3v4.5M3 10h18m-5 9h6m-3-3 3 3-3 3M7.005 15h.005M11 15h2"/></symbol><symbol xmlns="http://www.w3.org/2000/svg" id="crown" fill="none" stroke="currentColor" stroke-linecap="round" stroke-linejoin="round" stroke-width="2" viewBox="0 0 24 24"><path stroke="none" d="M0 0h24v24H0z"/><path d="m12 6 4 6 5-4-2 10H5L3 8l5 4z"/></symbol><symbol xmlns="http://www.w3.org/2000/svg" id="device-desktop" fill="none" stroke="currentColor" stroke-linecap="round" stroke-linejoin="round" stroke-width="2" viewBox="0 0 24 24"><path stroke="none" d="M0 0h24v24H0z"/><path d="M3 5a1 1 0 0 1 1-1h16a1 1 0 0 1 1 1v10a1 1 0 0 1-1 1H4a1 1 0 0 1-1-1zm4 15h10m-8-4v4m6-4v4"/></symbol><symbol xmlns="http://www.w3.org/2000/svg" id="device-mobile" fill="none" stroke="currentColor" stroke-linecap="round" stroke-linejoin="round" stroke-width="2" viewBox="0 0 24 24"><path stroke="none" d="M0 0h24v24H0z"/><path d="M6 5a2 2 0 0 1 2-2h8a2 2 0 0 1 2 2v14a2 2 0 0 1-2 2H8a2 2 0 0 1-2-2zm5-1h2m-1 13v.01"/></symbol><symbol xmlns="http://www.w3.org/2000/svg" id="discord-icon" viewBox="0 0 1024 1024"><circle cx="512" cy="512" r="512" style="fill:#5865f2"/><path d="M689.43 349a422.2 422.2 0 0 0-104.22-32.32 1.58 1.58 0 0 0-1.68.79 294 294 0 0 0-13 26.66 389.8 389.8 0 0 0-117.05 0 270 270 0 0 0-13.18-26.66 1.64 1.64 0 0 0-1.68-.79A421 421 0 0 0 334.44 349a1.5 1.5 0 0 0-.69.59c-66.37 99.17-84.55 195.9-75.63 291.41a1.76 1.76 0 0 0 .67 1.2 424.6 424.6 0 0 0 127.85 64.63 1.66 1.66 0 0 0 1.8-.59 303.5 303.5 0 0 0 26.15-42.54 1.62 1.62 0 0 0-.89-2.25 279.6 279.6 0 0 1-39.94-19 1.64 1.64 0 0 1-.16-2.72c2.68-2 5.37-4.1 7.93-6.22a1.58 1.58 0 0 1 1.65-.22c83.79 38.26 174.51 38.26 257.31 0a1.58 1.58 0 0 1 1.68.2c2.56 2.11 5.25 4.23 8 6.24a1.64 1.64 0 0 1-.14 2.72 262.4 262.4 0 0 1-40 19 1.63 1.63 0 0 0-.87 2.28 341 341 0 0 0 26.13 42.52 1.62 1.62 0 0 0 1.8.61 423.2 423.2 0 0 0 128-64.63 1.64 1.64 0 0 0 .67-1.18c10.68-110.44-17.88-206.38-75.7-291.42a1.3 1.3 0 0 0-.63-.63M427.09 582.85c-25.23 0-46-23.16-46-51.6s20.38-51.6 46-51.6c25.83 0 46.42 23.36 46 51.6.02 28.44-20.37 51.6-46 51.6m170.13 0c-25.23 0-46-23.16-46-51.6s20.38-51.6 46-51.6c25.83 0 46.42 23.36 46 51.6.01 28.44-20.17 51.6-46 51.6" style="fill:#fff"/></symbol><symbol xmlns="http://www.w3.org/2000/svg" id="dots-vertical" fill="none" stroke="currentColor" stroke-linecap="round" stroke-linejoin="round" stroke-width="2" viewBox="0 0 24 24"><path stroke="none" d="M0 0h24v24H0z"/><path d="M11 12a1 1 0 1 0 2 0 1 1 0 1 0-2 0m0 7a1 1 0 1 0 2 0 1 1 0 1 0-2 0m0-14a1 1 0 1 0 2 0 1 1 0 1 0-2 0"/></symbol><symbol xmlns="http://www.w3.org/2000/svg" id="dots" fill="none" stroke="currentColor" stroke-linecap="round" stroke-linejoin="round" stroke-width="2" viewBox="0 0 24 24"><path stroke="none" d="M0 0h24v24H0z"/><path d="M4 12a1 1 0 1 0 2 0 1 1 0 1 0-2 0m7 0a1 1 0 1 0 2 0 1 1 0 1 0-2 0m7 0a1 1 0 1 0 2 0 1 1 0 1 0-2 0"/></symbol><symbol xmlns="http://www.w3.org/2000/svg" id="download" fill="none" stroke="currentColor" stroke-linecap="round" stroke-linejoin="round" stroke-width="2" viewBox="0 0 24 24"><path stroke="none" d="M0 0h24v24H0z"/><path d="M4 17v2a2 2 0 0 0 2 2h12a2 2 0 0 0 2-2v-2M7 11l5 5 5-5m-5-7v12"/></symbol><symbol xmlns="http://www.w3.org/2000/svg" id="exchange" fill="none" stroke="currentColor" stroke-linecap="round" stroke-linejoin="round" stroke-width="2" viewBox="0 0 24 24"><path stroke="none" d="M0 0h24v24H0z"/><path d="M3 18a2 2 0 1 0 4 0 2 2 0 1 0-4 0M17 6a2 2 0 1 0 4 0 2 2 0 1 0-4 0"/><path d="M19 8v5a5 5 0 0 1-5 5h-3l3-3m0 6-3-3m-6-2v-5a5 5 0 0 1 5-5h3l-3-3m0 6 3-3"/></symbol><symbol xmlns="http://www.w3.org/2000/svg" id="external-link" fill="none" stroke="currentColor" stroke-linecap="round" stroke-linejoin="round" stroke-width="2" viewBox="0 0 24 24"><path stroke="none" d="M0 0h24v24H0z"/><path d="M12 6H6a2 2 0 0 0-2 2v10a2 2 0 0 0 2 2h10a2 2 0 0 0 2-2v-6m-7 1 9-9m-5 0h5v5"/></symbol><symbol xmlns="http://www.w3.org/2000/svg" id="eye-off" fill="none" stroke="currentColor" stroke-linecap="round" stroke-linejoin="round" stroke-width="2" viewBox="0 0 24 24"><path stroke="none" d="M0 0h24v24H0z"/><path d="M10.585 10.587a2 2 0 0 0 2.829 2.828"/><path d="M16.681 16.673A8.7 8.7 0 0 1 12 18q-5.4 0-9-6 1.908-3.18 4.32-4.674m2.86-1.146A9 9 0 0 1 12 6q5.4 0 9 6-1 1.665-2.138 2.87M3 3l18 18"/></symbol><symbol xmlns="http://www.w3.org/2000/svg" id="eye" fill="none" stroke="currentColor" stroke-linecap="round" stroke-linejoin="round" stroke-width="2" viewBox="0 0 24 24"><path stroke="none" d="M0 0h24v24H0z"/><path d="M10 12a2 2 0 1 0 4 0 2 2 0 0 0-4 0"/><path d="M21 12q-3.6 6-9 6t-9-6q3.6-6 9-6t9 6"/></symbol><symbol xmlns="http://www.w3.org/2000/svg" id="filter" fill="none" stroke="currentColor" stroke-linecap="round" stroke-linejoin="round" stroke-width="2" viewBox="0 0 24 24"><path stroke="none" d="M0 0h24v24H0z"/><path d="M4 4h16v2.172a2 2 0 0 1-.586 1.414L15 12v7l-6 2v-8.5L4.52 7.572A2 2 0 0 1 4 6.227z"/></symbol><symbol xmlns="http://www.w3.org/2000/svg" id="gift" fill="none" stroke="currentColor" stroke-linecap="round" stroke-linejoin="round" stroke-width="2" viewBox="0 0 24 24"><path stroke="none" d="M0 0h24v24H0z"/><path d="M3 9a1 1 0 0 1 1-1h16a1 1 0 0 1 1 1v2a1 1 0 0 1-1 1H4a1 1 0 0 1-1-1zm9-1v13"/><path d="M19 12v7a2 2 0 0 1-2 2H7a2 2 0 0 1-2-2v-7m2.5-4a2.5 2.5 0 0 1 0-5A4.8 8 0 0 1 12 8a4.8 8 0 0 1 4.5-5 2.5 2.5 0 0 1 0 5"/></symbol><symbol xmlns="http://www.w3.org/2000/svg" id="hand-stop" fill="none" stroke="currentColor" stroke-linecap="round" stroke-linejoin="round" stroke-width="2" viewBox="0 0 24 24"><path stroke="none" d="M0 0h24v24H0z"/><path d="M8 13V5.5a1.5 1.5 0 0 1 3 0V12m0-6.5v-2a1.5 1.5 0 1 1 3 0V12m0-6.5a1.5 1.5 0 0 1 3 0V12"/><path d="M17 7.5a1.5 1.5 0 0 1 3 0V16a6 6 0 0 1-6 6h-2 .208a6 6 0 0 1-5.012-2.7L7 19q-.468-.718-3.286-5.728a1.5 1.5 0 0 1 .536-2.022 1.87 1.87 0 0 1 2.28.28L8 13"/></symbol><symbol xmlns="http://www.w3.org/2000/svg" id="heart" fill="none" stroke="currentColor" stroke-linecap="round" stroke-linejoin="round" stroke-width="2" viewBox="0 0 24 24"><path stroke="none" d="M0 0h24v24H0z"/><path d="M19.5 12.572 12 20l-7.5-7.428A5 5 0 1 1 12 6.006a5 5 0 1 1 7.5 6.572"/></symbol><symbol xmlns="http://www.w3.org/2000/svg" id="link" fill="none" stroke="currentColor" stroke-linecap="round" stroke-linejoin="round" stroke-width="2" viewBox="0 0 24 24"><path stroke="none" d="M0 0h24v24H0z"/><path d="m9 15 6-6m-4-3 .463-.536a5 5 0 0 1 7.071 7.072L18 13m-5 5-.397.534a5.07 5.07 0 0 1-7.127 0 4.97 4.97 0 0 1 0-7.071L6 11"/></symbol><symbol xmlns="http://www.w3.org/2000/svg" id="loader-2" fill="none" stroke="currentColor" stroke-linecap="round" stroke-linejoin="round" stroke-width="2" viewBox="0 0 24 24"><path stroke="none" d="M0 0h24v24H0z"/><path d="M12 3a9 9 0 1 0 9 9"/></symbol><symbol xmlns="http://www.w3.org/2000/svg" id="lock" fill="none" stroke="currentColor" stroke-linecap="round" stroke-linejoin="round" stroke-width="2" viewBox="0 0 24 24"><path stroke="none" d="M0 0h24v24H0z"/><path d="M5 13a2 2 0 0 1 2-2h10a2 2 0 0 1 2 2v6a2 2 0 0 1-2 2H7a2 2 0 0 1-2-2z"/><path d="M11 16a1 1 0 1 0 2 0 1 1 0 0 0-2 0m-3-5V7a4 4 0 1 1 8 0v4"/></symbol><symbol xmlns="http://www.w3.org/2000/svg" id="logout" fill="none" stroke="currentColor" stroke-linecap="round" stroke-linejoin="round" stroke-width="2" viewBox="0 0 24 24"><path stroke="none" d="M0 0h24v24H0z"/><path d="M14 8V6a2 2 0 0 0-2-2H5a2 2 0 0 0-2 2v12a2 2 0 0 0 2 2h7a2 2 0 0 0 2-2v-2"/><path d="M9 12h12l-3-3m0 6 3-3"/></symbol><symbol xmlns="http://www.w3.org/2000/svg" id="man" fill="currentColor" viewBox="0 0 24 24"><path fill="none" d="M0 0h24v24H0z"/><path d="M15 8c1.628 0 3.2.787 4.707 2.293a1 1 0 0 1-1.414 1.414c-.848-.848-1.662-1.369-2.444-1.587L15 16.064V21a1 1 0 0 1-2 0v-4h-2v4a1 1 0 0 1-2 0v-4.929l-.85-5.951c-.781.218-1.595.739-2.443 1.587a1 1 0 1 1-1.414-1.414C5.799 8.787 7.373 8 9 8zm-3-7a3 3 0 1 1-3 3l.005-.176A3 3 0 0 1 12 1"/></symbol><symbol xmlns="http://www.w3.org/2000/svg" id="map" fill="none" stroke="currentColor" stroke-linecap="round" stroke-linejoin="round" stroke-width="2" viewBox="0 0 24 24"><path stroke="none" d="M0 0h24v24H0z"/><path d="m3 7 6-3 6 3 6-3v13l-6 3-6-3-6 3zm6-3v13m6-10v13"/></symbol><symbol xmlns="http://www.w3.org/2000/svg" id="menu-2" fill="none" stroke="currentColor" stroke-linecap="round" stroke-linejoin="round" stroke-width="2" viewBox="0 0 24 24"><path stroke="none" d="M0 0h24v24H0z"/><path d="M4 6h16M4 12h16M4 18h16"/></symbol><symbol xmlns="http://www.w3.org/2000/svg" id="mood-wrrr" fill="none" stroke="currentColor" stroke-linecap="round" stroke-linejoin="round" stroke-width="2" viewBox="0 0 24 24"><path stroke="none" d="M0 0h24v24H0z"/><path d="M12 21a9 9 0 1 1 0-18 9 9 0 0 1 0 18"/><path d="m8 16 1-1 1.5 1 1.5-1 1.5 1 1.5-1 1 1m-7.5-4.5L10 10 8.5 8.5m7 3L14 10l1.5-1.5"/></symbol><symbol xmlns="http://www.w3.org/2000/svg" id="mountain" fill="none" stroke="currentColor" stroke-linecap="round" stroke-linejoin="round" stroke-width="2" viewBox="0 0 24 24"><path stroke="none" d="M0 0h24v24H0z"/><path d="M3 20h18L14.079 5.388a2.3 2.3 0 0 0-4.158 0z"/><path d="m7.5 11 2 2.5L12 11l2 3 2.5-2"/></symbol><symbol xmlns="http://www.w3.org/2000/svg" id="pencil" fill="none" stroke="currentColor" stroke-linecap="round" stroke-linejoin="round" stroke-width="2" viewBox="0 0 24 24"><path stroke="none" d="M0 0h24v24H0z"/><path d="M4 20h4L18.5 9.5a2.828 2.828 0 1 0-4-4L4 16zm9.5-13.5 4 4"/></symbol><symbol xmlns="http://www.w3.org/2000/svg" id="picture-in-picture" fill="none" stroke="currentColor" stroke-linecap="round" stroke-linejoin="round" stroke-width="2" viewBox="0 0 24 24"><path stroke="none" d="M0 0h24v24H0z"/><path d="M11 19H5a2 2 0 0 1-2-2V7a2 2 0 0 1 2-2h14a2 2 0 0 1 2 2v4"/><path d="M14 15a1 1 0 0 1 1-1h5a1 1 0 0 1 1 1v3a1 1 0 0 1-1 1h-5a1 1 0 0 1-1-1z"/></symbol><symbol xmlns="http://www.w3.org/2000/svg" id="plus" fill="none" stroke="currentColor" stroke-linecap="round" stroke-linejoin="round" stroke-width="2" viewBox="0 0 24 24"><path stroke="none" d="M0 0h24v24H0z"/><path d="M12 5v14m-7-7h14"/></symbol><symbol xmlns="http://www.w3.org/2000/svg" id="qrcode" fill="none" stroke="currentColor" stroke-linecap="round" stroke-linejoin="round" stroke-width="2" viewBox="0 0 24 24"><path stroke="none" d="M0 0h24v24H0z"/><path d="M4 5a1 1 0 0 1 1-1h4a1 1 0 0 1 1 1v4a1 1 0 0 1-1 1H5a1 1 0 0 1-1-1zm3 12v.01M14 5a1 1 0 0 1 1-1h4a1 1 0 0 1 1 1v4a1 1 0 0 1-1 1h-4a1 1 0 0 1-1-1zM7 7v.01M4 15a1 1 0 0 1 1-1h4a1 1 0 0 1 1 1v4a1 1 0 0 1-1 1H5a1 1 0 0 1-1-1zm13-8v.01M14 14h3m3 0v.01M14 14v3m0 3h3m0-3h3m0 0v3"/></symbol><symbol xmlns="http://www.w3.org/2000/svg" id="question-mark" fill="none" stroke="currentColor" stroke-linecap="round" stroke-linejoin="round" stroke-width="2" viewBox="0 0 24 24"><path stroke="none" d="M0 0h24v24H0z"/><path d="M8 8a3.5 3 0 0 1 3.5-3h1A3.5 3 0 0 1 16 8a3 3 0 0 1-2 3 3 4 0 0 0-2 4m0 4v.01"/></symbol><symbol xmlns="http://www.w3.org/2000/svg" id="refresh" fill="none" stroke="currentColor" stroke-linecap="round" stroke-linejoin="round" stroke-width="2" viewBox="0 0 24 24"><path stroke="none" d="M0 0h24v24H0z"/><path d="M20 11A8.1 8.1 0 0 0 4.5 9M4 5v4h4m-4 4a8.1 8.1 0 0 0 15.5 2m.5 4v-4h-4"/></symbol><symbol xmlns="http://www.w3.org/2000/svg" id="rotate" fill="none" stroke="currentColor" stroke-linecap="round" stroke-linejoin="round" stroke-width="2" viewBox="0 0 24 24"><path stroke="none" d="M0 0h24v24H0z"/><path d="M19.95 11a8 8 0 1 0-.5 4m.5 5v-5h-5"/></symbol><symbol xmlns="http://www.w3.org/2000/svg" id="run" fill="none" stroke="currentColor" stroke-linecap="round" stroke-linejoin="round" stroke-width="2" viewBox="0 0 24 24"><path stroke="none" d="M0 0h24v24H0z"/><path d="M11.007 5a2 2 0 1 0 4 0 2 2 0 1 0-4 0M4 17l5 1 .75-1.5M15 21v-4l-4-3 1-6"/><path d="M7 12V9l5-1 3 3 3 1"/></symbol><symbol xmlns="http://www.w3.org/2000/svg" id="search" fill="none" stroke="currentColor" stroke-linecap="round" stroke-linejoin="round" stroke-width="2" viewBox="0 0 24 24"><path stroke="none" d="M0 0h24v24H0z"/><path d="M3 10a7 7 0 1 0 14 0 7 7 0 1 0-14 0m18 11-6-6"/></symbol><symbol xmlns="http://www.w3.org/2000/svg" id="selector" fill="none" stroke="currentColor" stroke-linecap="round" stroke-linejoin="round" stroke-width="2" viewBox="0 0 24 24"><path stroke="none" d="M0 0h24v24H0z"/><path d="m8 9 4-4 4 4m0 6-4 4-4-4"/></symbol><symbol xmlns="http://www.w3.org/2000/svg" id="settings" fill="none" stroke="currentColor" stroke-linecap="round" stroke-linejoin="round" stroke-width="2" viewBox="0 0 24 24"><path stroke="none" d="M0 0h24v24H0z"/><path d="M10.325 4.317c.426-1.756 2.924-1.756 3.35 0a1.724 1.724 0 0 0 2.573 1.066c1.543-.94 3.31.826 2.37 2.37a1.724 1.724 0 0 0 1.065 2.572c1.756.426 1.756 2.924 0 3.35a1.724 1.724 0 0 0-1.066 2.573c.94 1.543-.826 3.31-2.37 2.37a1.724 1.724 0 0 0-2.572 1.065c-.426 1.756-2.924 1.756-3.35 0a1.724 1.724 0 0 0-2.573-1.066c-1.543.94-3.31-.826-2.37-2.37a1.724 1.724 0 0 0-1.065-2.572c-1.756-.426-1.756-2.924 0-3.35a1.724 1.724 0 0 0 1.066-2.573c-.94-1.543.826-3.31 2.37-2.37 1 .608 2.296.07 2.572-1.065"/><path d="M9 12a3 3 0 1 0 6 0 3 3 0 0 0-6 0"/></symbol><symbol xmlns="http://www.w3.org/2000/svg" id="shield-half" fill="currentColor" viewBox="0 0 24 24"><path fill="none" d="M0 0h24v24H0z"/><path d="m11.998 2 .032.002.086.005a1 1 0 0 1 .342.104l.105.062.097.076.016.015.247.21a11 11 0 0 0 7.189 2.537l.342-.01a1 1 0 0 1 1.005.717 13 13 0 0 1-9.208 16.25 1 1 0 0 1-.502 0A13 13 0 0 1 2.54 5.718a1 1 0 0 1 1.005-.717 11 11 0 0 0 7.791-2.75l.046-.036.053-.041a1 1 0 0 1 .217-.112l.075-.023.036-.01a1 1 0 0 1 .12-.022l.086-.005zM12 4.296l-.176.135a13 13 0 0 1-7.288 2.572l-.264.006-.064.31a11 11 0 0 0 1.064 7.175l.17.314a11 11 0 0 0 6.49 5.136l.068.019z"/></symbol><symbol xmlns="http://www.w3.org/2000/svg" id="stars" fill="none" stroke="currentColor" stroke-linecap="round" stroke-linejoin="round" stroke-width="2" viewBox="0 0 24 24"><path stroke="none" d="M0 0h24v24H0z"/><path d="m17.8 19.817-2.172 1.138a.392.392 0 0 1-.568-.41l.415-2.411-1.757-1.707a.389.389 0 0 1 .217-.665l2.428-.352 1.086-2.193a.392.392 0 0 1 .702 0l1.086 2.193 2.428.352a.39.39 0 0 1 .217.665l-1.757 1.707.414 2.41a.39.39 0 0 1-.567.411zm-11.6 0-2.172 1.138a.392.392 0 0 1-.568-.41l.415-2.411-1.757-1.707a.389.389 0 0 1 .217-.665l2.428-.352 1.086-2.193a.392.392 0 0 1 .702 0l1.086 2.193 2.428.352a.39.39 0 0 1 .217.665l-1.757 1.707.414 2.41a.39.39 0 0 1-.567.411zm5.8-10-2.172 1.138a.392.392 0 0 1-.568-.41l.415-2.411-1.757-1.707a.389.389 0 0 1 .217-.665l2.428-.352 1.086-2.193a.392.392 0 0 1 .702 0l1.086 2.193 2.428.352a.39.39 0 0 1 .217.665l-1.757 1.707.414 2.41a.39.39 0 0 1-.567.411z"/></symbol><symbol xmlns="http://www.w3.org/2000/svg" id="telegram-icon" viewBox="0 0 512 512"><rect width="512" height="512" fill="#37aee2" rx="15%"/><path fill="#c8daea" d="M199 404c-11 0-10-4-13-14l-32-105 245-144"/><path fill="#a9c9dd" d="M199 404c7 0 11-4 16-8l45-43-56-34"/><path fill="#f6fbfe" d="m204 319 135 99c14 9 26 4 30-14l55-258c5-22-9-32-24-25L79 245c-21 8-21 21-4 26l83 26 190-121c9-5 17-3 11 4"/></symbol><symbol xmlns="http://www.w3.org/2000/svg" id="trash" fill="none" stroke="currentColor" stroke-linecap="round" stroke-linejoin="round" stroke-width="2" viewBox="0 0 24 24"><path stroke="none" d="M0 0h24v24H0z"/><path d="M4 7h16m-10 4v6m4-6v6M5 7l1 12a2 2 0 0 0 2 2h8a2 2 0 0 0 2-2l1-12M9 7V4a1 1 0 0 1 1-1h4a1 1 0 0 1 1 1v3"/></symbol><symbol xmlns="http://www.w3.org/2000/svg" id="trophy" fill="none" stroke="currentColor" stroke-linecap="round" stroke-linejoin="round" stroke-width="2" viewBox="0 0 24 24"><path stroke="none" d="M0 0h24v24H0z"/><path d="M8 21h8m-4-4v4M7 4h10m0 0v8a5 5 0 0 1-10 0V4M3 9a2 2 0 1 0 4 0 2 2 0 1 0-4 0m14 0a2 2 0 1 0 4 0 2 2 0 1 0-4 0"/></symbol><symbol xmlns="http://www.w3.org/2000/svg" id="upload" fill="none" stroke="currentColor" stroke-linecap="round" stroke-linejoin="round" stroke-width="2" viewBox="0 0 24 24"><path stroke="none" d="M0 0h24v24H0z"/><path d="M4 17v2a2 2 0 0 0 2 2h12a2 2 0 0 0 2-2v-2M7 9l5-5 5 5m-5-5v12"/></symbol><symbol xmlns="http://www.w3.org/2000/svg" id="user-circle" fill="none" stroke="currentColor" stroke-linecap="round" stroke-linejoin="round" stroke-width="2" viewBox="0 0 24 24"><path stroke="none" d="M0 0h24v24H0z"/><path d="M3 12a9 9 0 1 0 18 0 9 9 0 1 0-18 0"/><path d="M9 10a3 3 0 1 0 6 0 3 3 0 1 0-6 0m-2.832 8.849A4 4 0 0 1 10 16h4a4 4 0 0 1 3.834 2.855"/></symbol><symbol xmlns="http://www.w3.org/2000/svg" id="x" fill="none" stroke="currentColor" stroke-linecap="round" stroke-linejoin="round" stroke-width="2" viewBox="0 0 24 24"><path stroke="none" d="M0 0h24v24H0z"/><path d="M18 6 6 18M6 6l12 12"/></symbol></svg>