<svg width="0" height="0"><symbol xmlns="http://www.w3.org/2000/svg" id="arrow-left" fill="none" stroke="currentColor" stroke-linecap="round" stroke-linejoin="round" stroke-width="2" viewBox="0 0 24 24"><path stroke="none" d="M0 0h24v24H0z"/><path d="M5 12h14M5 12l6 6m-6-6 6-6"/></symbol><symbol xmlns="http://www.w3.org/2000/svg" id="arrow-right" fill="none" stroke="currentColor" stroke-linecap="round" stroke-linejoin="round" stroke-width="2" viewBox="0 0 24 24"><path stroke="none" d="M0 0h24v24H0z"/><path d="M5 12h14m-6 6 6-6m-6-6 6 6"/></symbol><symbol xmlns="http://www.w3.org/2000/svg" id="category" fill="none" stroke="currentColor" stroke-linecap="round" stroke-linejoin="round" stroke-width="2" viewBox="0 0 24 24"><path stroke="none" d="M0 0h24v24H0z"/><path d="M4 4h6v6H4zm10 0h6v6h-6zM4 14h6v6H4zm10 3a3 3 0 1 0 6 0 3 3 0 1 0-6 0"/></symbol><symbol xmlns="http://www.w3.org/2000/svg" id="loader-2" fill="none" stroke="currentColor" stroke-linecap="round" stroke-linejoin="round" stroke-width="2" viewBox="0 0 24 24"><path stroke="none" d="M0 0h24v24H0z"/><path d="M12 3a9 9 0 1 0 9 9"/></symbol><symbol xmlns="http://www.w3.org/2000/svg" id="x" fill="none" stroke="currentColor" stroke-linecap="round" stroke-linejoin="round" stroke-width="2" viewBox="0 0 24 24"><path stroke="none" d="M0 0h24v24H0z"/><path d="M18 6 6 18M6 6l12 12"/></symbol></svg>